<?xml version="1.0" standalone="no"?>
<!DOCTYPE svg PUBLIC "-//W3C//DTD SVG 20010904//EN"
 "http://www.w3.org/TR/2001/REC-SVG-20010904/DTD/svg10.dtd">
<svg version="1.0" xmlns="http://www.w3.org/2000/svg"
 width="1280.000000pt" height="640.000000pt" viewBox="0 0 1280.000000 640.000000"
 preserveAspectRatio="xMidYMid meet">
<metadata>
Created by potrace 1.15, written by Peter Selinger 2001-2017
</metadata>
<g transform="translate(0.000000,640.000000) scale(0.100000,-0.100000)"
fill="#000000" stroke="none">
<path d="M4773 6040 c-3 -11 -8 -20 -12 -20 -19 0 -807 -93 -810 -96 -2 -2 24
-33 58 -69 59 -63 101 -129 101 -158 0 -7 33 -34 73 -60 74 -47 136 -100 162
-141 10 -14 38 -30 75 -41 33 -10 60 -19 60 -20 0 -2 -20 -46 -45 -99 l-44
-96 -785 0 c-431 0 -791 -3 -800 -6 -9 -3 -16 -11 -16 -16 0 -6 45 -57 99
-114 268 -278 363 -521 332 -857 -26 -286 -64 -412 -265 -886 -139 -326 -179
-478 -179 -681 -1 -324 135 -631 352 -800 131 -102 310 -176 489 -202 l84 -12
-5 -251 c-2 -137 -9 -263 -14 -280 l-9 -30 -175 -7 c-302 -13 -539 -47 -579
-83 -14 -12 -58 -15 -233 -15 -194 0 -219 2 -249 19 -66 38 -271 66 -565 77
l-182 7 -6 25 c-19 76 -24 309 -24 1057 l-1 830 506 555 c643 705 616 674 608
694 -6 14 -77 16 -762 18 l-756 3 -20 38 c-49 93 -165 157 -261 143 -41 -5
-43 -4 -56 27 -26 63 -135 213 -209 288 -74 75 -187 157 -265 192 -32 14 -47
16 -68 8 -40 -15 -33 -25 25 -39 116 -27 288 -152 392 -285 57 -74 126 -181
126 -195 -1 -4 -24 -20 -53 -37 -39 -22 -60 -44 -86 -87 l-34 -58 -153 0
c-153 0 -154 0 -154 -22 0 -16 169 -209 556 -633 l555 -610 -4 -910 c-3 -686
-7 -922 -16 -957 l-13 -48 -81 0 c-249 0 -578 -39 -660 -79 -41 -20 -58 -21
-385 -21 l-342 0 0 -330 0 -330 6350 0 6350 0 0 330 0 330 -554 0 c-523 0
-554 1 -550 18 2 9 36 332 74 717 39 385 73 709 75 720 4 18 17 22 96 33 181
25 348 110 472 241 82 88 137 180 178 301 31 88 33 104 33 230 0 111 -3 149
-22 214 -90 315 -348 536 -670 576 -465 58 -880 -315 -882 -792 l0 -48 -593 0
c-571 0 -595 -1 -611 -19 -16 -18 -12 -74 93 -1098 61 -593 111 -1081 111
-1085 0 -5 -170 -8 -377 -8 -315 0 -379 2 -393 15 -40 36 -278 70 -580 83
l-175 7 -12 75 c-10 57 -12 285 -10 939 l2 864 41 12 c127 37 249 142 315 270
44 85 63 140 89 267 11 54 28 115 39 136 32 63 130 144 287 238 176 106 256
178 303 276 20 39 30 74 27 85 -5 16 31 40 236 155 133 74 244 140 245 145 7
21 -150 75 -301 104 -159 31 -345 24 -465 -16 -156 -53 -298 -170 -376 -310
l-37 -65 -814 0 c-644 0 -814 -3 -815 -12 -3 -31 5 -56 29 -102 46 -84 126
-155 285 -251 266 -161 302 -203 344 -400 40 -191 104 -319 206 -411 55 -50
176 -114 214 -114 l23 0 -1 -887 c-1 -629 -4 -904 -12 -943 l-12 -55 -175 -7
c-300 -13 -540 -47 -581 -84 -13 -12 -92 -14 -467 -14 l-452 0 0 1823 0 1822
-100 3 c-97 3 -100 3 -100 26 0 37 69 518 80 558 18 65 15 66 565 -26 249 -41
386 -60 398 -54 24 12 21 47 -5 58 -37 15 -824 140 -884 140 -30 0 -68 -7 -83
-14 -54 -29 -62 -53 -102 -345 -21 -152 -41 -291 -44 -308 l-6 -33 -434 0
-435 0 0 -1825 0 -1825 -432 0 c-364 0 -434 2 -448 15 -40 36 -277 70 -579 83
l-175 7 -9 30 c-5 17 -12 143 -14 280 l-5 251 84 12 c373 54 651 268 768 591
54 147 73 250 74 401 1 226 -34 356 -205 756 -164 385 -225 596 -238 834 -19
358 63 563 344 858 54 56 94 106 91 110 -4 4 -70 8 -147 10 -76 2 -139 5 -139
7 0 4 71 160 75 164 6 5 90 -45 105 -63 8 -10 29 -16 59 -16 70 0 160 -19 215
-45 45 -21 51 -22 83 -9 47 20 149 28 201 16 23 -5 42 -9 42 -7 0 2 -92 163
-205 359 -128 221 -203 361 -199 371 7 18 -12 45 -33 45 -8 0 -17 -9 -20 -20z"/>
</g>
</svg>
